<?xml version="1.0"?>
<svg width="1280" height="1214" xmlns="http://www.w3.org/2000/svg" xmlns:svg="http://www.w3.org/2000/svg" preserveAspectRatio="xMidYMid meet">
 <metadata>Created by potrace 1.15, written by Peter Selinger 2001-2017</metadata>
 <g class="layer">
  <title>Layer 1</title>
  <g fill="#000000" id="svg_1" transform="translate(0 1214) scale(0.1 -0.1)">
   <path d="m6075.509033,12129c-1136,-181 -2132,-819 -2767,-1774c-355,-534 -571,-1130 -649,-1785c-18,-156 -24,-533 -12,-720l7,-105l-147,-72c-528,-258 -1028,-676 -1397,-1168c-783,-1044 -1015,-2384 -631,-3645c42,-140 120,-343 128,-335c3,3 -10,53 -28,111c-121,381 -152,855 -84,1270c158,958 772,1754 1655,2144c392,173 787,250 1220,237c544,-17 1039,-175 1492,-477c300,-200 567,-461 770,-756l49,-72l119,70c66,38 124,73 128,77c4,4 -4,52 -18,105c-82,317 51,651 334,837c80,52 201,104 270,115l41,7l0,158c0,129 -3,159 -14,159c-44,0 -237,23 -336,41c-1101,193 -1986,1009 -2261,2085c-66,260 -83,400 -83,699c0,280 11,390 61,615c206,928 869,1699 1750,2036c128,49 362,118 436,129c26,4 47,11 47,16c0,10 -4,10 -80,-2z" fill="#76b7c4" id="svg_2"/>
   <path d="m7239.509033,12132c3,-5 34,-15 68,-22c105,-20 296,-79 428,-131c875,-343 1531,-1109 1734,-2022c51,-228 61,-332 60,-627c0,-234 -4,-295 -22,-409c-50,-308 -129,-557 -262,-826c-143,-291 -309,-523 -535,-750c-473,-475 -1081,-760 -1757,-825l-128,-13l0,-153l0,-154l28,-6c176,-38 316,-117 437,-246c111,-118 173,-237 202,-391c19,-103 13,-247 -16,-337c-11,-36 -21,-70 -21,-77c0,-6 57,-45 127,-87l127,-74l49,71c137,199 331,412 522,574c131,111 358,261 520,345c922,473 2007,413 2865,-157c174,-116 273,-197 431,-355c542,-538 831,-1238 830,-2005c0,-213 -9,-318 -42,-510c-18,-101 -81,-346 -104,-407c-4,-10 -3,-18 2,-18c19,0 126,312 183,535c217,856 159,1727 -172,2544c-99,245 -223,478 -384,721c-148,224 -293,400 -498,606c-327,326 -647,560 -1018,742l-157,77l7,100c12,174 6,569 -12,715c-24,204 -53,366 -96,539c-335,1352 -1358,2448 -2690,2879c-179,58 -405,113 -580,142c-36,5 -80,13 -98,16c-20,3 -32,1 -28,-4z" fill="#76b7c4" id="svg_3"/>
   <path d="m6480.509033,9064c-198,-19 -279,-29 -400,-50c-547,-95 -1092,-335 -1562,-687c-68,-51 -123,-97 -123,-103c0,-16 94,-187 157,-284c97,-149 255,-339 359,-433l41,-37l84,67c372,294 816,486 1289,558c229,34 567,30 805,-11c442,-76 870,-267 1224,-547l84,-67l45,42c167,154 352,396 470,617l51,95l-82,64c-196,154 -403,285 -640,402c-386,192 -756,303 -1187,356c-118,15 -528,27 -615,18z" fill="#76b7c4" id="svg_4"/>
   <path d="m3170.509033,6011l-70,-6l-17,-105c-43,-275 -49,-690 -14,-950c123,-891 547,-1686 1205,-2263c314,-274 635,-475 1019,-638l112,-47l39,56c84,125 177,310 244,488c34,88 97,296 97,318c0,6 -35,24 -77,40c-208,77 -521,260 -723,422c-119,96 -312,290 -408,411c-317,400 -509,862 -573,1378c-20,159 -15,464 10,635c11,79 18,147 13,150c-13,11 -153,48 -283,74c-211,43 -372,53 -574,37z" fill="#76b7c4" id="svg_5"/>
   <path d="m9890.509033,6014c-132,-14 -345,-57 -500,-102c-36,-10 -36,-13 -10,-197c21,-154 24,-437 6,-595c-92,-802 -534,-1516 -1215,-1962c-135,-88 -349,-199 -478,-248c-64,-24 -88,-38 -88,-51c0,-25 45,-178 86,-294c45,-126 167,-375 236,-482l53,-81l75,29c137,54 453,217 590,304c805,514 1372,1299 1595,2207c89,361 126,799 95,1108c-14,143 -42,337 -49,349c-7,11 -320,23 -396,15z" fill="#76b7c4" id="svg_6"/>
   <path d="m5955.509033,4832c-63,-37 -120,-70 -127,-75c-8,-5 0,-32 29,-95c374,-806 362,-1718 -32,-2497c-144,-285 -294,-491 -524,-720c-227,-226 -429,-375 -698,-515c-811,-421 -1758,-426 -2581,-14c-262,132 -485,293 -712,516c-88,86 -161,155 -164,153c-8,-9 160,-204 294,-343c834,-862 2000,-1312 3187,-1232c704,49 1416,290 1960,667l108,74l107,-74c420,-288 982,-517 1503,-611c1331,-240 2696,197 3635,1165c123,127 305,338 305,354c0,4 -58,-50 -128,-121c-476,-481 -1064,-764 -1743,-840c-171,-19 -515,-14 -674,10c-320,48 -585,130 -870,271c-753,370 -1299,1059 -1494,1885c-127,535 -91,1123 98,1631c31,85 121,294 137,320c2,4 -55,41 -127,83l-132,77l-66,-64c-166,-159 -333,-229 -551,-229c-221,-1 -407,79 -565,241c-27,28 -52,51 -55,50c-3,0 -57,-30 -120,-67z" fill="#76b7c4" id="svg_7"/>
  </g>
 </g>
</svg>